C:\Users\u0150099\Documents\PredSim_dev\Subjects\test_1\MuscleAnalysis\dummy_motion.mot
version=1
nRows=5
nColumns=32
inDegrees=no
endheader
                time	         pelvis_tilt	         pelvis_list	     pelvis_rotation	           pelvis_tx	           pelvis_ty	           pelvis_tz	       hip_flexion_l	     hip_adduction_l	      hip_rotation_l	       hip_flexion_r	     hip_adduction_r	      hip_rotation_r	        knee_angle_l	        knee_angle_r	       ankle_angle_l	       ankle_angle_r	    subtalar_angle_l	    subtalar_angle_r	         mtp_angle_l	         mtp_angle_r	    lumbar_extension	      lumbar_bending	     lumbar_rotation	          arm_flex_l	           arm_add_l	           arm_rot_l	          arm_flex_r	           arm_add_r	           arm_rot_r	        elbow_flex_l	        elbow_flex_r	
         37.51000000	          0.00000000	          0.00000000	          0.00000000	          0.00000000	          0.00000000	          0.00000000	         -0.00847704	         -0.25263967	         -0.19796650	         -0.65293663	          0.47644771	         -0.45817618	         -0.45719896	         -0.16724312	         -0.40164385	         -0.10354462	          0.49269927	         -0.30486860	          0.48422185	         -0.32324618	         -0.12650344	          0.25879279	          0.28876639	         -0.13841511	          0.22277334	          0.50875209	          0.17971816	          0.08098613	          0.25766649	          0.08041349	          0.38610531	
         37.52000000	          0.00000000	          0.00000000	          0.00000000	          0.00000000	          0.00000000	          0.00000000	          0.44728873	         -0.31852133	         -0.47606794	          0.62515221	         -0.24033983	         -0.41534189	         -1.08706443	         -0.18987250	          0.12533425	          0.36495026	          0.45338063	          0.39847492	          0.02606787	          0.05033074	          0.01245389	          0.45678091	         -0.06411014	         -0.07262993	         -0.22007444	          0.29462574	          0.27597791	         -0.22705211	          0.20952850	         -0.41440620	          0.35426897	
         37.53000000	          0.00000000	          0.00000000	          0.00000000	          0.00000000	          0.00000000	          0.00000000	          0.11545684	          0.31881196	          0.42688398	         -0.72251941	         -0.01928867	         -0.14095267	         -1.55425722	         -1.12653490	         -0.48946133	          0.03712073	         -0.42346009	         -0.38934508	          0.40087938	          0.39003243	          0.30205202	         -0.29939748	         -0.36487544	         -0.51327812	         -0.13335255	          0.13941616	          0.01134466	         -0.50778110	          0.41805625	         -0.02544148	          0.26184228	
         37.54000000	          0.00000000	          0.00000000	          0.00000000	          0.00000000	          0.00000000	          0.00000000	         -0.83020462	          0.01194236	         -0.21799455	          0.50436246	         -0.18645102	         -0.30090301	         -0.12745828	         -1.48397463	          0.33463351	         -0.36698129	         -0.29390909	          0.14442900	         -0.17458608	          0.69404687	          0.48461941	         -0.06429757	          0.00224207	         -0.19007459	         -0.30315305	          0.32184173	         -0.19810214	         -0.27989129	         -0.06146070	         -0.34066370	         -0.21130593	
         37.55000000	          0.00000000	          0.00000000	          0.00000000	          0.00000000	          0.00000000	          0.00000000	          0.33046127	          0.28637193	          0.41777795	         -0.58093388	         -0.07517600	          0.43064802	         -1.13676794	         -0.45839167	         -0.22857197	         -0.02139013	          0.32347393	          0.08729602	          0.38394970	          0.59608664	         -0.13747361	          0.30471162	         -0.41032313	         -0.07099774	          0.48941229	         -0.33983326	         -0.02625951	          0.29021102	          0.29738180	         -0.23219120	         -0.50291513	
